<?xml version="1.0" standalone="no"?>
<!DOCTYPE svg PUBLIC "-//W3C//DTD SVG 20010904//EN"
 "http://www.w3.org/TR/2001/REC-SVG-20010904/DTD/svg10.dtd">
<svg version="1.0" xmlns="http://www.w3.org/2000/svg"
 width="1024.000000pt" height="1024.000000pt" viewBox="0 0 1024.000000 1024.000000"
 preserveAspectRatio="xMidYMid meet">
<metadata>
Created by potrace 1.14, written by Peter Selinger 2001-2017
</metadata>
<g transform="translate(0.000000,1024.000000) scale(0.100000,-0.100000)"
fill="#000000" stroke="none">
<path d="M0 5120 l0 -5120 5045 0 5045 0 0 5120 0 5120 -5045 0 -5045 0 0
-5120z m8186 2680 c300 -77 525 -312 589 -615 22 -105 22 -4025 0 -4130 -64
-303 -281 -530 -590 -617 l-80 -23 -2190 4 c-2382 3 -2258 0 -2403 58 -166 67
-334 222 -415 384 -48 95 -87 224 -87 285 l0 33 -437 3 -438 3 -47 27 c-64 38
-104 116 -94 186 8 62 50 120 106 148 45 23 47 23 473 24 l427 0 0 305 0 305
-727 0 c-688 0 -730 1 -769 19 -47 21 -77 59 -93 116 -21 76 23 160 104 196
38 17 83 19 763 19 l722 0 0 975 0 975 -567 2 c-635 3 -604 0 -681 76 -144
144 -78 388 120 447 44 13 136 15 589 15 l537 0 6 23 c3 12 6 36 6 53 0 49 37
181 72 257 103 224 324 399 568 452 54 11 430 14 2261 14 2173 1 2197 1 2275
-19z m-6829 -1077 c39 -18 78 -71 88 -120 10 -50 -11 -107 -54 -146 -46 -42
-82 -50 -188 -46 -63 3 -85 9 -112 28 -37 27 -70 90 -71 135 0 50 37 113 83
141 36 21 54 25 130 25 62 0 99 -5 124 -17z m1160 -959 c92 -69 104 -178 30
-276 l-33 -43 -795 -3 c-574 -2 -806 1 -836 9 -154 42 -173 254 -29 320 39 18
79 19 838 16 791 -2 797 -2 825 -23z m-1034 -1904 c102 -70 102 -210 0 -280
-36 -25 -38 -25 -307 -28 -174 -2 -284 1 -308 7 -76 23 -129 122 -108 201 13
48 64 102 111 117 22 8 128 11 305 10 270 -2 271 -2 307 -27z"/>
<path d="M3552 7488 c-17 -17 -17 -369 0 -386 8 -8 66 -12 193 -12 127 0 185
4 193 12 17 17 17 369 0 386 -8 8 -66 12 -193 12 -127 0 -185 -4 -193 -12z"/>
<path d="M4990 7481 c-15 -29 -13 -364 2 -379 8 -8 66 -12 194 -12 230 0 214
-16 214 205 0 221 17 205 -215 205 -172 0 -185 -1 -195 -19z"/>
<path d="M6436 7484 c-13 -13 -16 -44 -16 -185 0 -98 4 -179 10 -190 10 -18
23 -19 201 -19 l189 0 10 26 c6 14 10 96 10 182 0 217 16 202 -210 202 -149 0
-181 -3 -194 -16z"/>
<path d="M7882 7488 c-8 -8 -12 -66 -12 -193 0 -127 4 -185 12 -193 8 -8 66
-12 195 -12 170 0 183 1 193 19 6 11 10 92 10 190 0 141 -3 172 -16 185 -13
13 -45 16 -193 16 -124 0 -181 -4 -189 -12z"/>
<path d="M4544 6730 c-105 -21 -213 -111 -250 -205 -18 -48 -19 -94 -19 -1420
l0 -1370 34 -63 c40 -74 84 -115 161 -151 l55 -26 1355 0 1355 0 56 26 c72 34
134 96 168 168 l26 56 0 1370 0 1370 -29 58 c-33 64 -92 124 -158 159 -41 22
-56 23 -293 28 -421 9 -2417 9 -2461 0z m1577 -1120 c261 -150 491 -288 511
-308 57 -54 81 -121 76 -207 -5 -80 -23 -121 -76 -172 -58 -56 -959 -571
-1019 -582 -137 -26 -284 67 -312 199 -7 33 -11 235 -11 579 0 579 1 587 60
668 20 27 52 53 93 73 56 29 69 31 133 27 l72 -4 473 -273z"/>
<path d="M3558 3159 c-16 -9 -18 -29 -18 -194 0 -156 2 -186 16 -200 14 -14
41 -16 196 -13 146 2 181 6 188 18 5 8 10 97 10 197 0 170 -1 183 -19 193 -26
13 -350 13 -373 -1z"/>
<path d="M4997 3152 c-15 -16 -17 -45 -17 -195 0 -223 -16 -207 210 -207 128
0 171 3 186 14 18 13 19 28 19 196 0 168 -1 183 -19 196 -15 11 -59 14 -191
14 -154 0 -174 -2 -188 -18z"/>
<path d="M6440 3150 c-18 -18 -20 -33 -20 -190 0 -229 -15 -215 219 -205 144
5 178 10 189 23 8 11 12 65 12 184 0 222 15 208 -210 208 -157 0 -172 -2 -190
-20z"/>
<path d="M7888 3159 c-16 -9 -18 -29 -18 -192 0 -129 4 -187 12 -195 17 -17
369 -17 386 0 8 8 12 65 12 189 0 225 16 209 -210 209 -93 0 -173 -5 -182 -11z"/>
<path d="M10130 5120 c0 -3407 3 -5120 10 -5120 7 0 10 1713 10 5120 0 3407
-3 5120 -10 5120 -7 0 -10 -1713 -10 -5120z"/>
<path d="M10165 5120 c0 -2819 1 -3972 2 -2562 2 1409 2 3715 0 5125 -1 1409
-2 256 -2 -2563z"/>
<path d="M10225 5120 c0 -2819 1 -3972 2 -2562 2 1409 2 3715 0 5125 -1 1409
-2 256 -2 -2563z"/>
</g>
</svg>
